# xmcd CD database file
#
# Track frame offsets:
#	150
#	12293
#	25278
#	37505
#	55275
#	65525
#	82960
#	96748
#	109400
#	123363
#
# Disc length: 1906 seconds
#
# Revision: 0
# Processed by: cddbd v1.5.2PL0 Copyright (c) Steve Scherf et al.
# Submitted via: CDex 1.51
#
DISCID=7e07700a
DTITLE=Danny Brillant - C'est ça qui est bon
DYEAR=1991
DGENRE=Chanson française
TTITLE0=Viens à Saint Germain
TTITLE1=Y' a qu'les filles qui m'intéressent
TTITLE2=Dormir avec toi
TTITLE3=Quand le jazz
TTITLE4=Ma fiancée, elle est partie
TTITLE5=Suzette
TTITLE6=La nuit est à nous
TTITLE7=Elle dit non, non, non
TTITLE8=C'est ça qui est bon
TTITLE9=Caroline est en colère
EXTD=YEAR: 1991
EXTT0=
EXTT1=
EXTT2=
EXTT3=
EXTT4=
EXTT5=
EXTT6=
EXTT7=
EXTT8=
EXTT9=
PLAYORDER=
